Egyptienne-5.ufo
<glyph name="period" format="2">
  <advance width="185"/>
  <unicode hex="002E"/>
  <outline>
    <contour>
      <point x="30" y="126" type="line"/>
      <point x="30" y="1" type="line"/>
      <point x="155" y="1" type="line"/>
      <point x="155" y="126" type="line"/>
    </contour>
  </outline>
</glyph>
<glyph name="zero" format="2">
  <advance width="664"/>
  <unicode hex="0030"/>
  <guideline y="0"/>
  <guideline y="700"/>
  <guideline x="183"/>
  <guideline x="395"/>
  <guideline y="350"/>
  <guideline x="455"/>
  <guideline x="266"/>
  <outline>
    <contour>
      <point x="330.712" y="714.854" type="curve" smooth="yes"/>
      <point x="524.664" y="714.854"/>
      <point x="621.64" y="555.44"/>
      <point x="620.804" y="349.907" type="curve" smooth="yes"/>
      <point x="619.968" y="117.304"/>
      <point x="520.484" y="-15.039"/>
      <point x="330.712" y="-15.039" type="curve" smooth="yes"/>
      <point x="151.808" y="-15.039"/>
      <point x="39.784" y="117.304"/>
      <point x="39.784" y="349.907" type="curve" smooth="yes"/>
      <point x="39.784" y="555.44"/>
      <point x="135.924" y="714.854"/>
    </contour>
    <contour>
      <point x="329.876" y="602.563" type="curve" smooth="yes"/>
      <point x="266.34" y="602.563"/>
      <point x="218.688" y="560.453"/>
      <point x="218.688" y="455.18" type="curve" smooth="yes"/>
      <point x="218.688" y="413.071"/>
      <point x="218.688" y="272.707"/>
      <point x="218.688" y="241.627" type="curve" smooth="yes"/>
      <point x="218.688" y="139.361"/>
      <point x="266.34" y="97.2522"/>
      <point x="330.712" y="97.2522" type="curve" smooth="yes"/>
      <point x="395.084" y="97.2522"/>
      <point x="441.9" y="139.361"/>
      <point x="441.9" y="241.627" type="curve" smooth="yes"/>
      <point x="441.9" y="272.707"/>
      <point x="441.9" y="413.071"/>
      <point x="441.9" y="455.18" type="curve" smooth="yes"/>
      <point x="441.9" y="560.453"/>
      <point x="395.084" y="602.563"/>
    </contour>
  </outline>
</glyph>
<glyph name="one" format="2">
  <advance width="492"/>
  <unicode hex="0031"/>
  <outline>
    <contour>
      <point x="73" y="0" type="line"/>
      <point x="73" y="75" type="line"/>
      <point x="193" y="75" type="line"/>
      <point x="193" y="500" type="line"/>
      <point x="73" y="312" type="line"/>
      <point x="21" y="420" type="line"/>
      <point x="192" y="700" type="line"/>
      <point x="342" y="700" type="line"/>
      <point x="342" y="75" type="line"/>
      <point x="462" y="75" type="line"/>
      <point x="462" y="0" type="line"/>
    </contour>
  </outline>
  <guideline angle="0" x="0" y="700"/>
  <guideline angle="0" x="0" y="0"/>
</glyph>
<glyph name="two" format="2">
  <advance width="627"/>
  <unicode hex="0032"/>
  <guideline y="700"/>
  <guideline y="0"/>
  <guideline y="770"/>
  <outline>
    <contour>
      <point x="583.124" y="181" type="line"/>
      <point x="583.124" y="0" type="line"/>
      <point x="49.925" y="0" type="line"/>
      <point x="24.9625" y="26"/>
      <point x="1.997" y="87"/>
      <point x="55.916" y="136" type="curve" smooth="yes"/>
      <point x="132.8" y="207"/>
      <point x="444.332" y="325"/>
      <point x="444.332" y="484" type="curve" smooth="yes"/>
      <point x="444.332" y="558"/>
      <point x="399.4" y="624"/>
      <point x="300.548" y="624" type="curve" smooth="yes"/>
      <point x="227.658" y="624"/>
      <point x="162.755" y="583"/>
      <point x="162.755" y="518" type="curve" smooth="yes"/>
      <point x="162.755" y="480"/>
      <point x="177.733" y="446"/>
      <point x="191.712" y="432" type="curve"/>
      <point x="47.928" y="432" type="line"/>
      <point x="32.9505" y="449"/>
      <point x="19.97" y="475"/>
      <point x="19.97" y="518" type="curve" smooth="yes"/>
      <point x="19.97" y="592"/>
      <point x="93.859" y="710"/>
      <point x="300.548" y="710" type="curve" smooth="yes"/>
      <point x="506.239" y="710"/>
      <point x="603.094" y="630"/>
      <point x="603.094" y="481" type="curve" smooth="yes"/>
      <point x="603.094" y="298"/>
      <point x="378.431" y="240"/>
      <point x="139.79" y="96" type="curve"/>
      <point x="506.239" y="96" type="line"/>
      <point x="503.244" y="179" type="line"/>
    </contour>
  </outline>
</glyph>
<glyph name="four" format="2">
  <advance width="626"/>
  <unicode hex="0034"/>
  <guideline y="700"/>
  <guideline y="0"/>
  <outline>
    <contour>
      <point x="232" y="700" type="line"/>
      <point x="232" y="700"/>
      <point x="194" y="566"/>
      <point x="155" y="480" type="curve" smooth="yes"/>
      <point x="109" y="379"/>
      <point x="14" y="248"/>
      <point x="14" y="248" type="curve"/>
      <point x="14" y="153" type="line"/>
      <point x="260" y="153" type="line"/>
      <point x="260" y="75" type="line"/>
      <point x="157" y="75" type="line"/>
      <point x="157" y="0" type="line"/>
      <point x="516" y="0" type="line"/>
      <point x="516" y="75" type="line"/>
      <point x="414" y="75" type="line"/>
      <point x="414" y="153" type="line"/>
      <point x="516" y="153" type="line"/>
      <point x="516" y="228" type="line"/>
      <point x="414" y="228" type="line"/>
      <point x="414" y="394" type="line"/>
      <point x="315" y="394" type="line"/>
      <point x="315" y="394"/>
      <point x="309" y="368"/>
      <point x="296" y="355" type="curve" smooth="yes"/>
      <point x="283" y="342"/>
      <point x="260" y="332"/>
      <point x="260" y="332" type="curve"/>
      <point x="260" y="228" type="line"/>
      <point x="92" y="228" type="line"/>
      <point x="92" y="228"/>
      <point x="227" y="358"/>
      <point x="296" y="474" type="curve" smooth="yes"/>
      <point x="374" y="605"/>
      <point x="410" y="700"/>
      <point x="410" y="700" type="curve"/>
    </contour>
  </outline>
</glyph>
<glyph name="five" format="2">
  <advance width="715"/>
  <unicode hex="0035"/>
  <outline>
    <contour>
      <point x="83.3635" y="699.986" type="line"/>
      <point x="83.3635" y="313.545" type="line"/>
      <point x="186.714" y="313.545" type="line"/>
      <point x="186.714" y="313.545"/>
      <point x="236.142" y="407.01"/>
      <point x="348.48" y="407.01" type="curve" smooth="yes"/>
      <point x="452.729" y="407.01"/>
      <point x="521.929" y="353.088"/>
      <point x="521.929" y="260.522" type="curve" smooth="yes"/>
      <point x="521.929" y="141.893"/>
      <point x="465.311" y="83.4778"/>
      <point x="348.48" y="83.4778" type="curve" smooth="yes"/>
      <point x="266.698" y="83.4778"/>
      <point x="176.828" y="121.223"/>
      <point x="194.802" y="231.763" type="curve"/>
      <point x="142.678" y="231.763"/>
      <point x="49.2129" y="231.763"/>
      <point x="49.2129" y="231.763" type="curve"/>
      <point x="49.2129" y="83.4778"/>
      <point x="160.652" y="-9.987"/>
      <point x="348.48" y="-9.987" type="curve" smooth="yes"/>
      <point x="536.308" y="-9.987"/>
      <point x="679.202" y="111.337"/>
      <point x="679.202" y="260.522" type="curve" smooth="yes"/>
      <point x="679.202" y="412.402"/>
      <point x="541.7" y="495.981"/>
      <point x="348.48" y="495.981" type="curve" smooth="yes"/>
      <point x="236.142" y="495.981"/>
      <point x="186.714" y="426.781"/>
      <point x="186.714" y="426.781" type="curve"/>
      <point x="186.714" y="611.913" type="line"/>
      <point x="186.714" y="611.913"/>
      <point x="244.231" y="576.864"/>
      <point x="348.48" y="576.864" type="curve" smooth="yes"/>
      <point x="534.511" y="576.864"/>
      <point x="632.469" y="699.986"/>
      <point x="632.469" y="699.986" type="curve"/>
      <point x="500.36" y="699.986" type="line"/>
      <point x="500.36" y="699.986"/>
      <point x="445.54" y="652.355"/>
      <point x="348.48" y="652.355" type="curve" smooth="yes"/>
      <point x="251.42" y="652.355"/>
      <point x="186.714" y="699.986"/>
      <point x="186.714" y="699.986" type="curve"/>
    </contour>
  </outline>
  <guideline angle="0" x="0" y="700"/>
  <guideline angle="0" x="0" y="0"/>
</glyph>
<glyph name="six" format="2">
  <advance width="633"/>
  <unicode hex="0036"/>
  <guideline y="700"/>
  <guideline y="0"/>
  <guideline x="340"/>
  <outline>
    <contour>
      <point x="471" y="500" type="line"/>
      <point x="475" y="534"/>
      <point x="439" y="592"/>
      <point x="340" y="592" type="curve" smooth="yes"/>
      <point x="226" y="592"/>
      <point x="202" y="478"/>
      <point x="203" y="379" type="curve"/>
      <point x="203" y="379"/>
      <point x="258" y="430"/>
      <point x="340" y="430" type="curve" smooth="yes"/>
      <point x="469" y="430"/>
      <point x="610" y="381"/>
      <point x="610" y="232" type="curve" smooth="yes"/>
      <point x="610" y="101"/>
      <point x="495" y="0"/>
      <point x="340" y="0" type="curve" smooth="yes"/>
      <point x="142" y="0"/>
      <point x="18" y="115"/>
      <point x="18" y="349" type="curve" smooth="yes"/>
      <point x="18" y="582"/>
      <point x="202" y="700"/>
      <point x="340" y="700" type="curve" smooth="yes"/>
      <point x="545" y="700"/>
      <point x="596" y="550"/>
      <point x="583" y="500" type="curve"/>
    </contour>
    <contour>
      <point x="330" y="336" type="curve" smooth="yes"/>
      <point x="258" y="336"/>
      <point x="207" y="282"/>
      <point x="207" y="222" type="curve" smooth="yes"/>
      <point x="207" y="162"/>
      <point x="254" y="101"/>
      <point x="330" y="101" type="curve" smooth="yes"/>
      <point x="406" y="101"/>
      <point x="460" y="142"/>
      <point x="460" y="221" type="curve" smooth="yes"/>
      <point x="460" y="300"/>
      <point x="391" y="336"/>
    </contour>
  </outline>
</glyph>
<glyph name="seven" format="2">
  <advance width="572"/>
  <unicode hex="0037"/>
  <guideline y="700"/>
  <guideline y="0"/>
  <guideline y="618"/>
  <outline>
    <contour>
      <point x="44" y="520" type="line"/>
      <point x="44" y="700" type="line"/>
      <point x="44" y="700"/>
      <point x="146" y="682"/>
      <point x="277" y="682" type="curve" smooth="yes"/>
      <point x="408" y="682"/>
      <point x="527" y="700"/>
      <point x="527" y="700" type="curve"/>
      <point x="527" y="618" type="line"/>
      <point x="527" y="618"/>
      <point x="414" y="453"/>
      <point x="375" y="309" type="curve" smooth="yes"/>
      <point x="336" y="165"/>
      <point x="339" y="0"/>
      <point x="339" y="0" type="curve"/>
      <point x="339" y="0"/>
      <point x="312" y="23"/>
      <point x="253" y="23" type="curve" smooth="yes"/>
      <point x="194" y="23"/>
      <point x="167" y="0"/>
      <point x="167" y="0" type="curve"/>
      <point x="167" y="0"/>
      <point x="208" y="188"/>
      <point x="277" y="350" type="curve" smooth="yes"/>
      <point x="346" y="512"/>
      <point x="369" y="541"/>
      <point x="435" y="618" type="curve"/>
      <point x="435" y="618"/>
      <point x="356" y="608"/>
      <point x="277" y="608" type="curve" smooth="yes"/>
      <point x="198" y="608"/>
      <point x="120" y="618"/>
      <point x="120" y="618" type="curve"/>
      <point x="120" y="520" type="line"/>
    </contour>
  </outline>
</glyph>
<glyph name="nine" format="2">
  <advance width="629"/>
  <unicode hex="0039"/>
  <outline>
    <contour>
      <point x="151.488" y="196.32" type="line"/>
      <point x="147.398" y="160.533"/>
      <point x="184.208" y="101.228"/>
      <point x="287.48" y="101.228" type="curve" smooth="yes"/>
      <point x="427.563" y="101.228"/>
      <point x="429.608" y="218.815"/>
      <point x="428.585" y="320.043" type="curve"/>
      <point x="428.585" y="320.043"/>
      <point x="371.325" y="268.918"/>
      <point x="287.48" y="268.918" type="curve" smooth="yes"/>
      <point x="153.533" y="268.918"/>
      <point x="9.36" y="317.998"/>
      <point x="9.36" y="472.395" type="curve" smooth="yes"/>
      <point x="9.36" y="608.388"/>
      <point x="127.97" y="707.57"/>
      <point x="287.48" y="707.57" type="curve" smooth="yes"/>
      <point x="490.958" y="707.57"/>
      <point x="618.77" y="593.05"/>
      <point x="618.77" y="351.74" type="curve" smooth="yes"/>
      <point x="618.77" y="111.453"/>
      <point x="429.608" y="-10.225"/>
      <point x="287.48" y="-10.225" type="curve" smooth="yes"/>
      <point x="75.8225" y="-10.225"/>
      <point x="23.675" y="144.173"/>
      <point x="36.9675" y="196.32" type="curve"/>
    </contour>
    <contour>
      <point x="297.705" y="365.033" type="curve" smooth="yes"/>
      <point x="371.325" y="365.033"/>
      <point x="424.495" y="420.248"/>
      <point x="424.495" y="482.62" type="curve" smooth="yes"/>
      <point x="424.495" y="543.97"/>
      <point x="375.415" y="608.388"/>
      <point x="297.705" y="608.388" type="curve" smooth="yes"/>
      <point x="219.995" y="608.388"/>
      <point x="162.735" y="564.42"/>
      <point x="162.735" y="483.643" type="curve" smooth="yes"/>
      <point x="162.735" y="401.843"/>
      <point x="235.333" y="365.033"/>
    </contour>
  </outline>
</glyph>
<glyph name="A" format="2">
  <advance width="966"/>
  <unicode hex="0041"/>
  <guideline y="0"/>
  <guideline y="700"/>
  <guideline x="271"/>
  <guideline x="437"/>
  <guideline y="516"/>
  <outline>
    <contour>
      <point x="30" y="98" type="line"/>
      <point x="155" y="98" type="line"/>
      <point x="404" y="700" type="line"/>
      <point x="563" y="700" type="line"/>
      <point x="806" y="98" type="line"/>
      <point x="936" y="98" type="line"/>
      <point x="936" y="0" type="line"/>
      <point x="484" y="0" type="line"/>
      <point x="484" y="98" type="line"/>
      <point x="611" y="98" type="line"/>
      <point x="566" y="216" type="line"/>
      <point x="337" y="216" type="line"/>
      <point x="291" y="98" type="line"/>
      <point x="413" y="98" type="line"/>
      <point x="413" y="0" type="line"/>
      <point x="30" y="0" type="line"/>
    </contour>
    <contour>
      <point x="377" y="315" type="line"/>
      <point x="532" y="315" type="line"/>
      <point x="457" y="516" type="line"/>
    </contour>
  </outline>
</glyph>
<glyph name="B" format="2">
  <advance width="868"/>
  <unicode hex="0042"/>
  <guideline y="700"/>
  <guideline y="0"/>
  <guideline y="350"/>
  <guideline y="530"/>
  <guideline y="180"/>
  <outline>
    <contour>
      <point x="50" y="700" type="line"/>
      <point x="497" y="700" type="line"/>
      <point x="497" y="600" type="line"/>
      <point x="368" y="600" type="line"/>
      <point x="368" y="100" type="line"/>
      <point x="497" y="100" type="line"/>
      <point x="497" y="0" type="line"/>
      <point x="50" y="0" type="line"/>
      <point x="50" y="100" type="line"/>
      <point x="179" y="100" type="line"/>
      <point x="179" y="600" type="line"/>
      <point x="50" y="600" type="line"/>
    </contour>
    <contour>
      <point x="253" y="700" type="line"/>
      <point x="552" y="700" type="line"/>
      <point x="721" y="700"/>
      <point x="838" y="648"/>
      <point x="838" y="508" type="curve" smooth="yes"/>
      <point x="838" y="409"/>
      <point x="769" y="350"/>
      <point x="675" y="350" type="curve"/>
      <point x="769" y="350"/>
      <point x="838" y="275"/>
      <point x="838" y="180" type="curve" smooth="yes"/>
      <point x="838" y="39"/>
      <point x="721" y="0"/>
      <point x="552" y="0" type="curve"/>
      <point x="253" y="0" type="line"/>
    </contour>
    <contour>
      <point x="368" y="600" type="line"/>
      <point x="368" y="400" type="line"/>
      <point x="517" y="400" type="line"/>
      <point x="614" y="400"/>
      <point x="661" y="432"/>
      <point x="661" y="500" type="curve" smooth="yes"/>
      <point x="661" y="570"/>
      <point x="614" y="600"/>
      <point x="517" y="600" type="curve"/>
    </contour>
    <contour>
      <point x="368" y="100" type="line"/>
      <point x="517" y="100" type="line"/>
      <point x="614" y="100"/>
      <point x="668" y="119"/>
      <point x="668" y="199" type="curve" smooth="yes"/>
      <point x="668" y="273"/>
      <point x="614" y="300"/>
      <point x="517" y="300" type="curve"/>
      <point x="368" y="300" type="line"/>
    </contour>
  </outline>
</glyph>
<glyph name="C" format="2">
  <advance width="763"/>
  <unicode hex="0043"/>
  <guideline y="0"/>
  <guideline y="700"/>
  <guideline y="620"/>
  <guideline y="619"/>
  <guideline x="-76"/>
  <guideline x="464"/>
  <guideline y="352"/>
  <guideline y="-10"/>
  <guideline x="594"/>
  <outline>
    <contour>
      <point x="543" y="635" type="curve"/>
      <point x="543" y="710" type="line"/>
      <point x="703" y="710" type="line"/>
      <point x="703" y="470" type="line"/>
      <point x="542" y="470" type="line"/>
      <point x="533" y="552"/>
      <point x="453" y="598"/>
      <point x="381" y="598" type="curve" smooth="yes"/>
      <point x="288" y="598"/>
      <point x="195" y="527"/>
      <point x="195" y="352" type="curve" smooth="yes"/>
      <point x="195" y="150"/>
      <point x="283" y="102"/>
      <point x="382" y="102" type="curve" smooth="yes"/>
      <point x="464" y="102"/>
      <point x="543" y="150"/>
      <point x="553" y="270" type="curve"/>
      <point x="713" y="270" type="line"/>
      <point x="713" y="-10" type="line"/>
      <point x="553" y="-10" type="line"/>
      <point x="553" y="67" type="line"/>
      <point x="512" y="21"/>
      <point x="450" y="-10"/>
      <point x="362" y="-10" type="curve" smooth="yes"/>
      <point x="148" y="-10"/>
      <point x="20" y="150"/>
      <point x="20" y="352" type="curve" smooth="yes"/>
      <point x="20" y="527"/>
      <point x="139" y="710"/>
      <point x="362" y="710" type="curve" smooth="yes"/>
      <point x="444" y="710"/>
      <point x="503" y="677"/>
    </contour>
  </outline>
</glyph>
<glyph name="D" format="2">
  <advance width="864"/>
  <unicode hex="0044"/>
  <guideline y="0"/>
  <guideline y="700"/>
  <guideline y="350"/>
  <guideline y="600"/>
  <guideline y="100"/>
  <guideline x="566"/>
  <outline>
    <contour>
      <point x="50" y="0" type="line"/>
      <point x="521" y="0" type="line"/>
      <point x="722" y="0"/>
      <point x="844" y="100"/>
      <point x="844" y="350" type="curve" smooth="yes"/>
      <point x="844" y="584"/>
      <point x="722" y="700"/>
      <point x="521" y="700" type="curve"/>
      <point x="50" y="700" type="line"/>
      <point x="50" y="600" type="line"/>
      <point x="179" y="600" type="line"/>
      <point x="179" y="100" type="line"/>
      <point x="50" y="100" type="line"/>
    </contour>
    <contour>
      <point x="368" y="600" type="line"/>
      <point x="448" y="600" type="line"/>
      <point x="564" y="600"/>
      <point x="652" y="546"/>
      <point x="651" y="350" type="curve" smooth="yes"/>
      <point x="650" y="149"/>
      <point x="562" y="100"/>
      <point x="448" y="100" type="curve"/>
      <point x="368" y="100" type="line"/>
    </contour>
  </outline>
</glyph>
<glyph name="E" format="2">
  <advance width="818"/>
  <unicode hex="0045"/>
  <outline>
    <contour>
      <point x="50" y="0" type="line"/>
      <point x="788" y="0" type="line"/>
      <point x="788" y="214" type="line"/>
      <point x="688" y="214" type="line"/>
      <point x="688" y="100" type="line"/>
      <point x="368" y="100" type="line"/>
      <point x="368" y="300" type="line"/>
      <point x="568" y="300" type="line"/>
      <point x="568" y="400" type="line"/>
      <point x="368" y="400" type="line"/>
      <point x="368" y="600" type="line"/>
      <point x="688" y="600" type="line"/>
      <point x="688" y="486" type="line"/>
      <point x="788" y="486" type="line"/>
      <point x="788" y="700" type="line"/>
      <point x="50" y="700" type="line"/>
      <point x="50" y="600" type="line"/>
      <point x="179" y="600" type="line"/>
      <point x="179" y="100" type="line"/>
      <point x="50" y="100" type="line"/>
    </contour>
  </outline>
  <guideline angle="0" x="0" y="0"/>
  <guideline angle="0" x="0" y="700"/>
  <guideline angle="0" x="0" y="350"/>
</glyph>
<glyph name="F" format="2">
  <advance width="792"/>
  <unicode hex="0046"/>
  <outline>
    <contour>
      <point x="50" y="0" type="line"/>
      <point x="50" y="100" type="line"/>
      <point x="179" y="100" type="line"/>
      <point x="179" y="600" type="line"/>
      <point x="50" y="600" type="line"/>
      <point x="50" y="700" type="line"/>
      <point x="782" y="700" type="line"/>
      <point x="782" y="530" type="line"/>
      <point x="688" y="530" type="line"/>
      <point x="688" y="600" type="line"/>
      <point x="368" y="600" type="line"/>
      <point x="368" y="400" type="line"/>
      <point x="568" y="400" type="line"/>
      <point x="568" y="300" type="line"/>
      <point x="368" y="300" type="line"/>
      <point x="368" y="100" type="line"/>
      <point x="497" y="100" type="line"/>
      <point x="497" y="0" type="line"/>
    </contour>
  </outline>
  <guideline angle="0" x="0" y="700"/>
  <guideline angle="0" x="0" y="0"/>
  <guideline angle="0" x="0" y="350"/>
</glyph>
<glyph name="G" format="2">
  <advance width="823"/>
  <unicode hex="0047"/>
  <outline>
    <contour>
      <point x="381" y="598" type="curve" smooth="yes"/>
      <point x="288" y="598"/>
      <point x="195" y="527"/>
      <point x="195" y="352" type="curve" smooth="yes"/>
      <point x="195" y="150"/>
      <point x="283" y="102"/>
      <point x="382" y="102" type="curve" smooth="yes"/>
      <point x="464" y="102"/>
      <point x="517" y="152"/>
      <point x="518" y="204" type="curve" smooth="yes"/>
      <point x="518" y="227"/>
      <point x="518" y="240"/>
      <point x="518" y="270" type="curve"/>
      <point x="624" y="270" type="line"/>
      <point x="624" y="144"/>
      <point x="557" y="-10"/>
      <point x="362" y="-10" type="curve" smooth="yes"/>
      <point x="148" y="-10"/>
      <point x="20" y="150"/>
      <point x="20" y="352" type="curve" smooth="yes"/>
      <point x="20" y="527"/>
      <point x="139" y="710"/>
      <point x="362" y="710" type="curve" smooth="yes"/>
      <point x="571" y="710"/>
      <point x="625" y="497"/>
      <point x="624" y="470" type="curve"/>
      <point x="542" y="470" type="line"/>
      <point x="533" y="552"/>
      <point x="453" y="598"/>
    </contour>
    <contour>
      <point x="703" y="270" type="line"/>
      <point x="703" y="-10" type="line"/>
      <point x="553" y="-10" type="line"/>
      <point x="576" y="270" type="line"/>
    </contour>
    <contour>
      <point x="693" y="710" type="line"/>
      <point x="693" y="470" type="line"/>
      <point x="543" y="470" type="line"/>
      <point x="543" y="710" type="line"/>
    </contour>
    <contour>
      <point x="414" y="364" type="line"/>
      <point x="803" y="364" type="line"/>
      <point x="803" y="254" type="line"/>
      <point x="414" y="254" type="line"/>
    </contour>
  </outline>
</glyph>
<glyph name="H" format="2">
  <advance width="1014"/>
  <unicode hex="0048"/>
  <guideline y="666"/>
  <guideline y="-34"/>
  <guideline x="944"/>
  <guideline x="270"/>
  <guideline x="507"/>
  <guideline y="316"/>
  <guideline y="368"/>
  <guideline y="264"/>
  <guideline x="733"/>
  <guideline x="-654"/>
  <outline>
    <contour>
      <point x="50" y="700" type="line"/>
      <point x="480" y="700" type="line"/>
      <point x="480" y="600" type="line"/>
      <point x="368" y="600" type="line"/>
      <point x="368" y="400" type="line"/>
      <point x="646" y="400" type="line"/>
      <point x="646" y="600" type="line"/>
      <point x="534" y="600" type="line"/>
      <point x="534" y="700" type="line"/>
      <point x="964" y="700" type="line"/>
      <point x="964" y="600" type="line"/>
      <point x="835" y="600" type="line"/>
      <point x="835" y="100" type="line"/>
      <point x="964" y="100" type="line"/>
      <point x="964" y="0" type="line"/>
      <point x="534" y="0" type="line"/>
      <point x="534" y="100" type="line"/>
      <point x="646" y="100" type="line"/>
      <point x="646" y="300" type="line"/>
      <point x="368" y="300" type="line"/>
      <point x="368" y="100" type="line"/>
      <point x="480" y="100" type="line"/>
      <point x="480" y="0" type="line"/>
      <point x="50" y="0" type="line"/>
      <point x="50" y="100" type="line"/>
      <point x="179" y="100" type="line"/>
      <point x="179" y="600" type="line"/>
      <point x="50" y="600" type="line"/>
    </contour>
  </outline>
</glyph>
<glyph name="I" format="2">
  <advance width="547"/>
  <unicode hex="0049"/>
  <guideline y="0"/>
  <guideline y="700"/>
  <outline>
    <contour>
      <point x="50" y="700" type="line"/>
      <point x="497" y="700" type="line"/>
      <point x="497" y="600" type="line"/>
      <point x="368" y="600" type="line"/>
      <point x="368" y="100" type="line"/>
      <point x="497" y="100" type="line"/>
      <point x="497" y="0" type="line"/>
      <point x="50" y="0" type="line"/>
      <point x="50" y="100" type="line"/>
      <point x="179" y="100" type="line"/>
      <point x="179" y="600" type="line"/>
      <point x="50" y="600" type="line"/>
    </contour>
  </outline>
</glyph>
<glyph name="J" format="2">
  <advance width="607"/>
  <unicode hex="004A"/>
  <guideline y="700"/>
  <guideline y="0"/>
  <guideline y="161"/>
  <guideline y="96"/>
  <outline>
    <contour>
      <point x="135" y="700" type="line"/>
      <point x="557" y="700" type="line"/>
      <point x="557" y="600" type="line"/>
      <point x="446" y="600" type="line"/>
      <point x="446" y="178" type="line"/>
      <point x="446" y="96"/>
      <point x="411" y="-7"/>
      <point x="234" y="-7" type="curve" smooth="yes"/>
      <point x="57" y="-7"/>
      <point x="20" y="96"/>
      <point x="20" y="178" type="curve"/>
      <point x="20" y="271" type="line"/>
      <point x="162" y="271" type="line"/>
      <point x="162" y="157" type="line"/>
      <point x="162" y="126"/>
      <point x="186" y="112"/>
      <point x="211" y="112" type="curve" smooth="yes"/>
      <point x="232" y="112"/>
      <point x="257" y="126"/>
      <point x="257" y="157" type="curve"/>
      <point x="257" y="600" type="line"/>
      <point x="135" y="600" type="line"/>
    </contour>
  </outline>
</glyph>
<glyph name="K" format="2">
  <advance width="1003"/>
  <unicode hex="004B"/>
  <guideline y="700"/>
  <guideline x="1257"/>
  <outline>
    <contour>
      <point x="50.379" y="689.34" type="line"/>
      <point x="491.21" y="689.34" type="line"/>
      <point x="491.21" y="590.72" type="line"/>
      <point x="363.991" y="590.72" type="line"/>
      <point x="363.991" y="97.62" type="line"/>
      <point x="491.21" y="97.62" type="line"/>
      <point x="491.21" y="-1" type="line"/>
      <point x="50.379" y="-1" type="line"/>
      <point x="50.379" y="97.62" type="line"/>
      <point x="177.599" y="97.62" type="line"/>
      <point x="177.599" y="590.72" type="line"/>
      <point x="50.379" y="590.72" type="line"/>
    </contour>
    <contour>
      <point x="545.451" y="689.34" type="line"/>
      <point x="982.338" y="689.34" type="line"/>
      <point x="982.338" y="590.72" type="line"/>
      <point x="831.449" y="590.72" type="line"/>
      <point x="620.403" y="441.804" type="line"/>
      <point x="829.477" y="97.62" type="line"/>
      <point x="982.338" y="97.62" type="line"/>
      <point x="982.338" y="-1" type="line"/>
      <point x="545.451" y="-1" type="line"/>
      <point x="545.451" y="97.62" type="line"/>
      <point x="633.223" y="97.62" type="line"/>
      <point x="484.307" y="356.004" type="line"/>
      <point x="360.046" y="270.205" type="line"/>
      <point x="360.046" y="390.521" type="line"/>
      <point x="659.851" y="590.72" type="line"/>
      <point x="545.451" y="590.72" type="line"/>
    </contour>
  </outline>
</glyph>
<glyph name="L" format="2">
  <advance width="838"/>
  <unicode hex="004C"/>
  <guideline y="0"/>
  <guideline y="700"/>
  <outline>
    <contour>
      <point x="50" y="700" type="line"/>
      <point x="497" y="700" type="line"/>
      <point x="497" y="600" type="line"/>
      <point x="368" y="600" type="line"/>
      <point x="368" y="100" type="line"/>
      <point x="688" y="100" type="line"/>
      <point x="688" y="262" type="line"/>
      <point x="788" y="262" type="line"/>
      <point x="788" y="0" type="line"/>
      <point x="50" y="0" type="line"/>
      <point x="50" y="100" type="line"/>
      <point x="179" y="100" type="line"/>
      <point x="179" y="600" type="line"/>
      <point x="50" y="600" type="line"/>
    </contour>
  </outline>
</glyph>
<glyph name="M" format="2">
  <advance width="1076"/>
  <unicode hex="004D"/>
  <guideline y="0"/>
  <guideline y="700"/>
  <outline>
    <contour>
      <point x="50" y="0" type="line"/>
      <point x="50" y="100" type="line"/>
      <point x="179" y="100" type="line"/>
      <point x="179" y="600" type="line"/>
      <point x="50" y="600" type="line"/>
      <point x="50" y="700" type="line"/>
      <point x="423" y="700" type="line"/>
      <point x="525" y="404" type="line"/>
      <point x="617" y="700" type="line"/>
      <point x="1025" y="700" type="line"/>
      <point x="1025" y="600" type="line"/>
      <point x="897" y="600" type="line"/>
      <point x="897" y="93" type="line"/>
      <point x="1026" y="93" type="line"/>
      <point x="1026" y="0" type="line"/>
      <point x="595" y="0" type="line"/>
      <point x="595" y="92" type="line"/>
      <point x="708" y="92" type="line"/>
      <point x="708" y="559" type="line"/>
      <point x="535" y="0" type="line"/>
      <point x="477" y="0" type="line"/>
      <point x="279" y="569" type="line"/>
      <point x="279" y="100" type="line"/>
      <point x="393" y="100" type="line"/>
      <point x="393" y="0" type="line"/>
    </contour>
  </outline>
</glyph>
<glyph name="N" format="2">
  <advance width="968"/>
  <unicode hex="004E"/>
  <outline>
    <contour>
      <point x="50" y="0" type="line"/>
      <point x="50" y="100" type="line"/>
      <point x="179" y="100" type="line"/>
      <point x="179" y="600" type="line"/>
      <point x="50" y="600" type="line"/>
      <point x="50" y="700" type="line"/>
      <point x="371" y="700" type="line"/>
      <point x="689" y="269" type="line"/>
      <point x="689" y="600" type="line"/>
      <point x="560" y="600" type="line"/>
      <point x="560" y="700" type="line"/>
      <point x="918" y="700" type="line"/>
      <point x="918" y="600" type="line"/>
      <point x="789" y="600" type="line"/>
      <point x="789" y="0" type="line"/>
      <point x="682" y="0" type="line"/>
      <point x="279" y="543" type="line"/>
      <point x="279" y="100" type="line"/>
      <point x="408" y="100" type="line"/>
      <point x="408" y="0" type="line"/>
    </contour>
  </outline>
  <guideline angle="0" x="0" y="700"/>
  <guideline angle="0" x="0" y="0"/>
</glyph>
<glyph name="O" format="2">
  <advance width="784"/>
  <unicode hex="004F"/>
  <outline>
    <contour>
      <point x="392" y="715" type="curve" smooth="yes"/>
      <point x="624" y="715"/>
      <point x="764" y="527"/>
      <point x="763" y="352" type="curve" smooth="yes"/>
      <point x="762" y="150"/>
      <point x="619" y="-15"/>
      <point x="392" y="-15" type="curve" smooth="yes"/>
      <point x="178" y="-15"/>
      <point x="20" y="150"/>
      <point x="20" y="352" type="curve" smooth="yes"/>
      <point x="20" y="527"/>
      <point x="159" y="715"/>
    </contour>
    <contour>
      <point x="391" y="603" type="curve" smooth="yes"/>
      <point x="293" y="603"/>
      <point x="215" y="527"/>
      <point x="215" y="352" type="curve" smooth="yes"/>
      <point x="215" y="150"/>
      <point x="293" y="97"/>
      <point x="392" y="97" type="curve" smooth="yes"/>
      <point x="489" y="97"/>
      <point x="568" y="150"/>
      <point x="568" y="352" type="curve" smooth="yes"/>
      <point x="568" y="527"/>
      <point x="489" y="603"/>
    </contour>
  </outline>
  <guideline angle="0" x="0" y="1"/>
  <guideline angle="0" x="0" y="715"/>
  <guideline angle="90" x="392" y="0"/>
  <guideline angle="0" x="0" y="352"/>
  <guideline angle="90" x="610" y="0"/>
  <guideline angle="90" x="178" y="0"/>
  <guideline angle="0" x="0" y="527"/>
  <guideline angle="0" x="0" y="150"/>
</glyph>
<glyph name="P" format="2">
  <advance width="817"/>
  <unicode hex="0050"/>
  <outline>
    <contour>
      <point x="50" y="0" type="line"/>
      <point x="50" y="100" type="line"/>
      <point x="179" y="100" type="line"/>
      <point x="179" y="600" type="line"/>
      <point x="50" y="600" type="line"/>
      <point x="50" y="700" type="line"/>
      <point x="539" y="700" type="line"/>
      <point x="621" y="700"/>
      <point x="797" y="663"/>
      <point x="797" y="500" type="curve" smooth="yes"/>
      <point x="797" y="333"/>
      <point x="621" y="300"/>
      <point x="539" y="300" type="curve"/>
      <point x="368" y="300" type="line"/>
      <point x="368" y="100" type="line"/>
      <point x="497" y="100" type="line"/>
      <point x="497" y="0" type="line"/>
    </contour>
    <contour>
      <point x="368" y="600" type="line"/>
      <point x="368" y="399" type="line"/>
      <point x="511" y="399" type="line"/>
      <point x="566" y="399"/>
      <point x="630" y="422"/>
      <point x="630" y="500" type="curve" smooth="yes"/>
      <point x="630" y="574"/>
      <point x="566" y="600"/>
      <point x="511" y="600" type="curve"/>
    </contour>
  </outline>
  <guideline angle="0" x="0" y="700"/>
  <guideline angle="0" x="0" y="0"/>
  <guideline angle="0" x="0" y="500"/>
  <guideline angle="90" x="737" y="0"/>
  <guideline angle="0" x="0" y="600"/>
  <guideline angle="0" x="0" y="399"/>
  <guideline angle="90" x="613" y="0"/>
</glyph>
<glyph name="Q" format="2">
  <advance width="803"/>
  <unicode hex="0051"/>
  <guideline y="700"/>
  <guideline y="0"/>
  <outline>
    <contour>
      <point x="392" y="715" type="curve" smooth="yes"/>
      <point x="624" y="715"/>
      <point x="764" y="527"/>
      <point x="763" y="352" type="curve" smooth="yes"/>
      <point x="762" y="150"/>
      <point x="619" y="-15"/>
      <point x="392" y="-15" type="curve" smooth="yes"/>
      <point x="178" y="-15"/>
      <point x="20" y="150"/>
      <point x="20" y="352" type="curve" smooth="yes"/>
      <point x="20" y="527"/>
      <point x="159" y="715"/>
    </contour>
    <contour>
      <point x="391" y="603" type="curve" smooth="yes"/>
      <point x="293" y="603"/>
      <point x="215" y="527"/>
      <point x="215" y="352" type="curve" smooth="yes"/>
      <point x="215" y="150"/>
      <point x="293" y="97"/>
      <point x="392" y="97" type="curve" smooth="yes"/>
      <point x="489" y="97"/>
      <point x="568" y="150"/>
      <point x="568" y="352" type="curve" smooth="yes"/>
      <point x="568" y="527"/>
      <point x="489" y="603"/>
    </contour>
    <contour>
      <point x="671" y="70" type="curve" smooth="yes"/>
      <point x="722" y="70"/>
      <point x="770" y="97"/>
      <point x="783" y="100" type="curve"/>
      <point x="783" y="25" type="line"/>
      <point x="743" y="-7"/>
      <point x="712" y="-15"/>
      <point x="662" y="-15" type="curve" smooth="yes"/>
      <point x="530" y="-15"/>
      <point x="522" y="165"/>
      <point x="413" y="165" type="curve" smooth="yes"/>
      <point x="374" y="165"/>
      <point x="358" y="158"/>
      <point x="331" y="144" type="curve"/>
      <point x="306" y="209" type="line"/>
      <point x="327" y="229"/>
      <point x="355" y="244"/>
      <point x="420" y="244" type="curve" smooth="yes"/>
      <point x="541" y="244"/>
      <point x="602" y="70"/>
    </contour>
  </outline>
</glyph>
<glyph name="R" format="2">
  <advance width="972"/>
  <unicode hex="0052"/>
  <guideline y="700"/>
  <guideline y="0"/>
  <outline>
    <contour>
      <point x="50" y="0" type="line"/>
      <point x="50" y="100" type="line"/>
      <point x="179" y="100" type="line"/>
      <point x="179" y="600" type="line"/>
      <point x="50" y="600" type="line"/>
      <point x="50" y="700" type="line"/>
      <point x="539" y="700" type="line"/>
      <point x="621" y="700"/>
      <point x="797" y="663"/>
      <point x="797" y="500" type="curve" smooth="yes"/>
      <point x="797" y="333"/>
      <point x="621" y="300"/>
      <point x="539" y="300" type="curve"/>
      <point x="368" y="300" type="line"/>
      <point x="368" y="100" type="line"/>
      <point x="497" y="100" type="line"/>
      <point x="497" y="0" type="line"/>
    </contour>
    <contour>
      <point x="368" y="600" type="line"/>
      <point x="368" y="399" type="line"/>
      <point x="511" y="399" type="line"/>
      <point x="566" y="399"/>
      <point x="630" y="422"/>
      <point x="630" y="500" type="curve" smooth="yes"/>
      <point x="630" y="574"/>
      <point x="566" y="600"/>
      <point x="511" y="600" type="curve"/>
    </contour>
    <contour>
      <point x="411" y="300" type="line"/>
      <point x="411" y="327" type="line"/>
      <point x="508" y="327"/>
      <point x="532" y="327"/>
      <point x="642" y="327" type="curve" smooth="yes"/>
      <point x="739" y="327"/>
      <point x="810" y="261"/>
      <point x="810" y="187" type="curve" smooth="yes"/>
      <point x="810" y="166"/>
      <point x="810" y="163"/>
      <point x="810" y="143" type="curve"/>
      <point x="810" y="112"/>
      <point x="822" y="95"/>
      <point x="847" y="96" type="curve" smooth="yes"/>
      <point x="889" y="97"/>
      <point x="921" y="99"/>
      <point x="952" y="100" type="curve"/>
      <point x="952" y="3" type="line"/>
      <point x="891" y="3"/>
      <point x="802" y="0"/>
      <point x="712" y="0" type="curve" smooth="yes"/>
      <point x="649" y="0"/>
      <point x="618" y="52"/>
      <point x="617" y="102" type="curve" smooth="yes"/>
      <point x="616" y="141"/>
      <point x="617" y="191"/>
      <point x="617" y="224" type="curve" smooth="yes"/>
      <point x="617" y="277"/>
      <point x="576" y="300"/>
      <point x="526" y="300" type="curve"/>
    </contour>
  </outline>
</glyph>
<glyph name="S" format="2">
  <advance width="666"/>
  <unicode hex="0053"/>
  <guideline y="700"/>
  <guideline y="0"/>
  <outline>
    <contour>
      <point x="32" y="0" type="line"/>
      <point x="32" y="254" type="line"/>
      <point x="147" y="254" type="line"/>
      <point x="155" y="222"/>
      <point x="197" y="95"/>
      <point x="355" y="95" type="curve" smooth="yes"/>
      <point x="452" y="95"/>
      <point x="483" y="137"/>
      <point x="483" y="181" type="curve" smooth="yes"/>
      <point x="483" y="341"/>
      <point x="30" y="213"/>
      <point x="30" y="485" type="curve" smooth="yes"/>
      <point x="30" y="683"/>
      <point x="218" y="707"/>
      <point x="285" y="707" type="curve" smooth="yes"/>
      <point x="413" y="707"/>
      <point x="476" y="629"/>
      <point x="476" y="618" type="curve"/>
      <point x="476" y="700" type="line"/>
      <point x="581" y="700" type="line"/>
      <point x="581" y="460" type="line"/>
      <point x="476" y="460" type="line"/>
      <point x="469" y="500"/>
      <point x="415" y="602"/>
      <point x="285" y="602" type="curve" smooth="yes"/>
      <point x="208" y="602"/>
      <point x="173" y="566"/>
      <point x="173" y="536" type="curve" smooth="yes"/>
      <point x="173" y="376"/>
      <point x="636" y="504"/>
      <point x="636" y="213" type="curve" smooth="yes"/>
      <point x="636" y="69"/>
      <point x="499" y="-12"/>
      <point x="379" y="-12" type="curve" smooth="yes"/>
      <point x="224" y="-12"/>
      <point x="147" y="75"/>
      <point x="147" y="75" type="curve" smooth="yes"/>
      <point x="147" y="75"/>
      <point x="147" y="0"/>
      <point x="147" y="0" type="curve"/>
    </contour>
  </outline>
</glyph>
<glyph name="T" format="2">
  <advance width="687"/>
  <unicode hex="0054"/>
  <guideline y="700"/>
  <guideline y="0"/>
  <outline>
    <contour>
      <point x="11" y="500" type="line"/>
      <point x="10" y="700" type="line"/>
      <point x="677" y="700" type="line"/>
      <point x="677" y="500" type="line"/>
      <point x="577" y="500" type="line"/>
      <point x="577" y="600" type="line"/>
      <point x="438" y="600" type="line"/>
      <point x="438" y="100" type="line"/>
      <point x="567" y="100" type="line"/>
      <point x="567" y="0" type="line"/>
      <point x="120" y="0" type="line"/>
      <point x="120" y="100" type="line"/>
      <point x="249" y="100" type="line"/>
      <point x="249" y="600" type="line"/>
      <point x="110" y="600" type="line"/>
      <point x="111" y="500" type="line"/>
    </contour>
  </outline>
</glyph>
<glyph name="U" format="2">
  <advance width="865"/>
  <unicode hex="0055"/>
  <outline>
    <contour>
      <point x="20" y="700" type="line"/>
      <point x="467" y="700" type="line"/>
      <point x="467" y="600" type="line"/>
      <point x="338" y="600" type="line"/>
      <point x="338" y="247" type="line"/>
      <point x="338" y="200"/>
      <point x="347" y="109"/>
      <point x="477" y="109" type="curve" smooth="yes"/>
      <point x="607" y="109"/>
      <point x="616" y="200"/>
      <point x="616" y="247" type="curve"/>
      <point x="616" y="600" type="line"/>
      <point x="487" y="600" type="line"/>
      <point x="487" y="700" type="line"/>
      <point x="845" y="700" type="line"/>
      <point x="845" y="600" type="line"/>
      <point x="716" y="600" type="line"/>
      <point x="716" y="197" type="line"/>
      <point x="716" y="135"/>
      <point x="702" y="0"/>
      <point x="425" y="0" type="curve" smooth="yes"/>
      <point x="165" y="0"/>
      <point x="149" y="135"/>
      <point x="149" y="197" type="curve"/>
      <point x="149" y="600" type="line"/>
      <point x="20" y="600" type="line"/>
    </contour>
  </outline>
  <guideline angle="0" x="0" y="700"/>
  <guideline angle="0" x="0" y="0"/>
</glyph>
<glyph name="V" format="2">
  <advance width="990"/>
  <unicode hex="0056"/>
  <guideline y="700"/>
  <guideline y="0"/>
  <outline>
    <contour>
      <point x="30" y="700" type="line"/>
      <point x="30" y="600" type="line"/>
      <point x="159" y="600" type="line"/>
      <point x="409" y="0" type="line"/>
      <point x="588" y="0" type="line"/>
      <point x="812" y="600" type="line"/>
      <point x="960" y="600" type="line"/>
      <point x="960" y="700" type="line"/>
      <point x="539" y="700" type="line"/>
      <point x="539" y="600" type="line"/>
      <point x="686" y="600" type="line"/>
      <point x="528" y="175" type="line"/>
      <point x="356" y="600" type="line"/>
      <point x="485" y="600" type="line"/>
      <point x="485" y="700" type="line"/>
    </contour>
  </outline>
</glyph>
<glyph name="W" format="2">
  <advance width="1517"/>
  <unicode hex="0057"/>
  <outline>
    <contour>
      <point x="557" y="700" type="line"/>
      <point x="557" y="600" type="line"/>
      <point x="686" y="600" type="line"/>
      <point x="936" y="0" type="line"/>
      <point x="1115" y="0" type="line"/>
      <point x="1339" y="600" type="line"/>
      <point x="1487" y="600" type="line"/>
      <point x="1487" y="700" type="line"/>
      <point x="1032" y="700" type="line"/>
      <point x="1032" y="600" type="line"/>
      <point x="1213" y="600" type="line"/>
      <point x="1055" y="175" type="line"/>
      <point x="883" y="600" type="line"/>
      <point x="978" y="600" type="line"/>
      <point x="978" y="700" type="line"/>
    </contour>
    <contour>
      <point x="30" y="700" type="line"/>
      <point x="30" y="600" type="line"/>
      <point x="159" y="600" type="line"/>
      <point x="409" y="0" type="line"/>
      <point x="588" y="0" type="line"/>
      <point x="812" y="600" type="line"/>
      <point x="960" y="600" type="line"/>
      <point x="960" y="700" type="line"/>
      <point x="539" y="700" type="line"/>
      <point x="539" y="600" type="line"/>
      <point x="686" y="600" type="line"/>
      <point x="528" y="175" type="line"/>
      <point x="356" y="600" type="line"/>
      <point x="485" y="600" type="line"/>
      <point x="485" y="700" type="line"/>
    </contour>
  </outline>
</glyph>
<glyph name="X" format="2">
  <advance width="913"/>
  <unicode hex="0058"/>
  <guideline y="700"/>
  <guideline y="0"/>
  <guideline x="435"/>
  <guideline x="469"/>
  <outline>
    <contour>
      <point x="30" y="0" type="line"/>
      <point x="30" y="100" type="line"/>
      <point x="159" y="100" type="line"/>
      <point x="598" y="600" type="line"/>
      <point x="469" y="600" type="line"/>
      <point x="469" y="700" type="line"/>
      <point x="883" y="700" type="line"/>
      <point x="883" y="600" type="line"/>
      <point x="726" y="600" type="line"/>
      <point x="278" y="100" type="line"/>
      <point x="435" y="100" type="line"/>
      <point x="435" y="0" type="line"/>
    </contour>
    <contour>
      <point x="30" y="700" type="line"/>
      <point x="435" y="700" type="line"/>
      <point x="435" y="600" type="line"/>
      <point x="348" y="600" type="line"/>
      <point x="783" y="100" type="line"/>
      <point x="883" y="100" type="line"/>
      <point x="883" y="0" type="line"/>
      <point x="469" y="0" type="line"/>
      <point x="469" y="100" type="line"/>
      <point x="577" y="100" type="line"/>
      <point x="142" y="600" type="line"/>
      <point x="30" y="600" type="line"/>
    </contour>
  </outline>
</glyph>
<glyph name="Y" format="2">
  <advance width="906"/>
  <unicode hex="0059"/>
  <outline>
    <contour>
      <point x="248" y="0" type="line"/>
      <point x="248" y="100" type="line"/>
      <point x="377" y="100" type="line"/>
      <point x="377" y="255" type="line"/>
      <point x="159" y="600" type="line"/>
      <point x="30" y="600" type="line"/>
      <point x="30" y="700" type="line"/>
      <point x="483" y="700" type="line"/>
      <point x="483" y="600" type="line"/>
      <point x="354" y="600" type="line"/>
      <point x="502" y="352" type="line"/>
      <point x="647" y="600" type="line"/>
      <point x="518" y="600" type="line"/>
      <point x="518" y="700" type="line"/>
      <point x="876" y="700" type="line"/>
      <point x="876" y="600" type="line"/>
      <point x="747" y="600" type="line"/>
      <point x="537" y="255" type="line"/>
      <point x="537" y="100" type="line"/>
      <point x="666" y="100" type="line"/>
      <point x="666" y="0" type="line"/>
    </contour>
  </outline>
  <guideline angle="0" x="0" y="700"/>
  <guideline angle="0" x="0" y="0"/>
</glyph>
<glyph name="Z" format="2">
  <advance width="645"/>
  <unicode hex="005A"/>
  <guideline y="700"/>
  <guideline y="0"/>
  <outline>
    <contour>
      <point x="30" y="468" type="line"/>
      <point x="30" y="700" type="line"/>
      <point x="615" y="700" type="line"/>
      <point x="615" y="600" type="line"/>
      <point x="226" y="100" type="line"/>
      <point x="502" y="100" type="line"/>
      <point x="502" y="233" type="line"/>
      <point x="602" y="233" type="line"/>
      <point x="602" y="0" type="line"/>
      <point x="30" y="0" type="line"/>
      <point x="30" y="100" type="line"/>
      <point x="419" y="600" type="line"/>
      <point x="130" y="600" type="line"/>
      <point x="130" y="468" type="line"/>
    </contour>
  </outline>
</glyph>
<glyph name="a" format="2">
  <advance width="607"/>
  <unicode hex="0061"/>
  <guideline y="0"/>
  <outline>
    <contour>
      <point x="33" y="352" type="curve" smooth="yes"/>
      <point x="33" y="340"/>
      <point x="36" y="329"/>
      <point x="39" y="317" type="curve"/>
      <point x="174" y="317" type="line"/>
      <point x="155" y="377"/>
      <point x="205" y="418"/>
      <point x="279" y="418" type="curve" smooth="yes"/>
      <point x="342" y="418"/>
      <point x="386" y="388"/>
      <point x="386" y="312" type="curve" smooth="yes"/>
      <point x="386" y="302" type="line"/>
      <point x="185" y="263" type="line" smooth="yes"/>
      <point x="63" y="239"/>
      <point x="15" y="203"/>
      <point x="15" y="128" type="curve" smooth="yes"/>
      <point x="15" y="46"/>
      <point x="86" y="-12"/>
      <point x="208" y="-12" type="curve" smooth="yes"/>
      <point x="331" y="-12"/>
      <point x="387" y="54"/>
      <point x="398" y="73" type="curve"/>
      <point x="416" y="17"/>
      <point x="448" y="-6"/>
      <point x="512" y="-6" type="curve" smooth="yes"/>
      <point x="538" y="-6"/>
      <point x="566" y="-2"/>
      <point x="592" y="0" type="curve"/>
      <point x="592" y="75" type="line"/>
      <point x="579" y="74"/>
      <point x="571" y="72"/>
      <point x="552" y="72" type="curve" smooth="yes"/>
      <point x="524" y="72"/>
      <point x="511" y="82"/>
      <point x="511" y="107" type="curve" smooth="yes"/>
      <point x="512" y="307" type="line" smooth="yes"/>
      <point x="513" y="429"/>
      <point x="427" y="510"/>
      <point x="270" y="510" type="curve" smooth="yes"/>
      <point x="131" y="510"/>
      <point x="33" y="446"/>
    </contour>
    <contour>
      <point x="387" y="238" type="line"/>
      <point x="387" y="193" type="line" smooth="yes"/>
      <point x="387" y="137"/>
      <point x="335" y="79"/>
      <point x="241" y="79" type="curve" smooth="yes"/>
      <point x="176" y="79"/>
      <point x="148" y="100"/>
      <point x="148" y="136" type="curve" smooth="yes"/>
      <point x="148" y="169"/>
      <point x="173" y="191"/>
      <point x="227" y="203" type="curve" smooth="yes"/>
    </contour>
  </outline>
</glyph>
<glyph name="b" format="2">
  <advance width="651"/>
  <unicode hex="0062"/>
  <guideline y="700"/>
  <guideline y="0"/>
  <outline>
    <contour>
      <point x="30" y="700" type="line"/>
      <point x="30" y="625" type="line"/>
      <point x="129" y="625" type="line"/>
      <point x="129" y="75" type="line"/>
      <point x="30" y="75" type="line"/>
      <point x="30" y="0" type="line"/>
      <point x="254" y="0" type="line"/>
      <point x="254" y="50" type="line"/>
      <point x="254" y="50"/>
      <point x="304" y="-10"/>
      <point x="412" y="-10" type="curve" smooth="yes"/>
      <point x="528" y="-10"/>
      <point x="631" y="51"/>
      <point x="631" y="250" type="curve" smooth="yes"/>
      <point x="631" y="409"/>
      <point x="536" y="484"/>
      <point x="420" y="488" type="curve" smooth="yes"/>
      <point x="312" y="492"/>
      <point x="254" y="441"/>
      <point x="254" y="441" type="curve"/>
      <point x="254" y="700" type="line"/>
    </contour>
    <contour>
      <point x="251" y="312" type="line"/>
      <point x="270" y="363"/>
      <point x="312" y="405"/>
      <point x="386" y="405" type="curve" smooth="yes"/>
      <point x="480" y="405"/>
      <point x="509" y="319"/>
      <point x="509" y="251" type="curve" smooth="yes"/>
      <point x="509" y="157"/>
      <point x="487" y="72"/>
      <point x="379" y="75" type="curve" smooth="yes"/>
      <point x="280" y="78"/>
      <point x="251" y="156"/>
      <point x="251" y="156" type="curve" smooth="yes"/>
    </contour>
  </outline>
</glyph>
<glyph name="c" format="2">
  <advance width="546"/>
  <unicode hex="0063"/>
  <outline>
    <contour>
      <point x="525" y="194" type="line"/>
      <point x="527" y="113"/>
      <point x="471" y="-10"/>
      <point x="276" y="-10" type="curve" smooth="yes"/>
      <point x="90" y="-10"/>
      <point x="20" y="119"/>
      <point x="20" y="250" type="curve" smooth="yes"/>
      <point x="20" y="377"/>
      <point x="90" y="510"/>
      <point x="276" y="510" type="curve" smooth="yes"/>
      <point x="468" y="510"/>
      <point x="523" y="390"/>
      <point x="523" y="298" type="curve"/>
      <point x="398" y="290" type="line"/>
      <point x="408" y="382"/>
      <point x="355" y="423"/>
      <point x="276" y="423" type="curve" smooth="yes"/>
      <point x="199" y="423"/>
      <point x="156" y="364"/>
      <point x="156" y="250" type="curve" smooth="yes"/>
      <point x="156" y="140"/>
      <point x="198" y="77"/>
      <point x="276" y="77" type="curve" smooth="yes"/>
      <point x="358" y="77"/>
      <point x="400" y="106"/>
      <point x="413" y="190" type="curve"/>
    </contour>
  </outline>
  <guideline angle="0" x="0" y="500"/>
  <guideline angle="0" x="0" y="0"/>
  <guideline angle="90" x="90" y="0"/>
  <guideline angle="90" x="355" y="0"/>
</glyph>
<glyph name="d" format="2">
  <advance width="643"/>
  <unicode hex="0064"/>
  <outline>
    <contour>
      <point x="313" y="700" type="line"/>
      <point x="313" y="625" type="line"/>
      <point x="410" y="625" type="line"/>
      <point x="410" y="424" type="line" smooth="yes"/>
      <point x="410" y="415"/>
      <point x="367" y="491"/>
      <point x="234" y="491" type="curve" smooth="yes"/>
      <point x="114" y="491"/>
      <point x="20" y="397"/>
      <point x="20" y="242" type="curve" smooth="yes"/>
      <point x="20" y="106"/>
      <point x="99" y="7"/>
      <point x="214" y="-7" type="curve" smooth="yes"/>
      <point x="375" y="-27"/>
      <point x="396" y="63"/>
      <point x="395" y="41" type="curve"/>
      <point x="395" y="0" type="line"/>
      <point x="613" y="0" type="line"/>
      <point x="613" y="75" type="line"/>
      <point x="535" y="75" type="line"/>
      <point x="535" y="700" type="line"/>
    </contour>
    <contour>
      <point x="404" y="330" type="curve" smooth="yes"/>
      <point x="404" y="156" type="line"/>
      <point x="399" y="116"/>
      <point x="378" y="75"/>
      <point x="278" y="75" type="curve" smooth="yes"/>
      <point x="184" y="75"/>
      <point x="150" y="156"/>
      <point x="150" y="253" type="curve" smooth="yes"/>
      <point x="150" y="353"/>
      <point x="206" y="412"/>
      <point x="271" y="412" type="curve" smooth="yes"/>
      <point x="362" y="412"/>
      <point x="404" y="353"/>
    </contour>
  </outline>
</glyph>
<glyph name="e" format="2">
  <advance width="542"/>
  <unicode hex="0065"/>
  <outline>
    <contour>
      <point x="522" y="229" type="line" smooth="yes"/>
      <point x="522" y="229"/>
      <point x="522" y="497"/>
      <point x="278" y="498" type="curve" smooth="yes"/>
      <point x="124" y="499"/>
      <point x="22" y="390"/>
      <point x="21" y="252" type="curve" smooth="yes"/>
      <point x="20" y="123"/>
      <point x="112" y="-13"/>
      <point x="277" y="-13" type="curve" smooth="yes"/>
      <point x="445" y="-13"/>
      <point x="522" y="117"/>
      <point x="522" y="174" type="curve"/>
      <point x="415" y="174" type="line"/>
      <point x="415" y="174"/>
      <point x="415" y="81"/>
      <point x="278" y="81" type="curve" smooth="yes"/>
      <point x="182" y="81"/>
      <point x="145" y="162"/>
      <point x="154" y="229" type="curve"/>
    </contour>
    <contour>
      <point x="397" y="304" type="curve"/>
      <point x="154" y="304" type="line"/>
      <point x="154" y="304"/>
      <point x="178" y="412"/>
      <point x="278" y="412" type="curve" smooth="yes"/>
      <point x="386" y="412"/>
      <point x="395" y="304"/>
    </contour>
  </outline>
  <guideline angle="0" x="0" y="499"/>
  <guideline angle="0" x="0" y="490"/>
  <guideline angle="0" x="0" y="-9"/>
</glyph>
<glyph name="f" format="2">
  <advance width="420"/>
  <unicode hex="0066"/>
  <outline>
    <contour>
      <point x="235" y="489" type="curve"/>
      <point x="337" y="489" type="line"/>
      <point x="337" y="414" type="line"/>
      <point x="237" y="414" type="line"/>
      <point x="237" y="75" type="line"/>
      <point x="337" y="75" type="line"/>
      <point x="337" y="0" type="line"/>
      <point x="30" y="0" type="line"/>
      <point x="31" y="75" type="line"/>
      <point x="114" y="75" type="line"/>
      <point x="112" y="414" type="line"/>
      <point x="30" y="414" type="line"/>
      <point x="30" y="489" type="line"/>
      <point x="112" y="489" type="line"/>
      <point x="112" y="516"/>
      <point x="112" y="537"/>
      <point x="112" y="573" type="curve" smooth="yes"/>
      <point x="112" y="610"/>
      <point x="121" y="705"/>
      <point x="256" y="705" type="curve" smooth="yes"/>
      <point x="388" y="705"/>
      <point x="400" y="586"/>
      <point x="400" y="527" type="curve"/>
      <point x="292" y="527" type="line"/>
      <point x="296" y="537"/>
      <point x="295" y="564"/>
      <point x="292" y="590" type="curve" smooth="yes"/>
      <point x="289" y="614"/>
      <point x="282" y="625"/>
      <point x="262" y="625" type="curve" smooth="yes"/>
      <point x="245" y="625"/>
      <point x="240" y="615"/>
      <point x="237" y="610" type="curve"/>
      <point x="233" y="599"/>
      <point x="233" y="591"/>
      <point x="234" y="542" type="curve" smooth="yes"/>
      <point x="235" y="496"/>
      <point x="235" y="505"/>
    </contour>
  </outline>
  <guideline angle="0" x="0" y="489"/>
  <guideline angle="0" x="0" y="0"/>
  <guideline angle="0" x="0" y="700"/>
</glyph>
<glyph name="g" format="2">
  <advance width="653"/>
  <unicode hex="0067"/>
  <guideline y="500"/>
  <guideline y="0"/>
  <guideline y="-200"/>
  <outline>
    <contour>
      <point x="623" y="500" type="line"/>
      <point x="623" y="425" type="line"/>
      <point x="535" y="425" type="line"/>
      <point x="535" y="-12" type="line"/>
      <point x="535" y="-120"/>
      <point x="426" y="-204"/>
      <point x="274" y="-204" type="curve" smooth="yes"/>
      <point x="122" y="-204"/>
      <point x="30" y="-156"/>
      <point x="30" y="-12" type="curve"/>
      <point x="165" y="-12" type="line"/>
      <point x="165" y="-57"/>
      <point x="185" y="-114"/>
      <point x="280" y="-114" type="curve"/>
      <point x="340" y="-114"/>
      <point x="405" y="-86"/>
      <point x="405" y="-12" type="curve"/>
      <point x="405" y="72" type="line"/>
      <point x="405" y="67"/>
      <point x="354" y="9"/>
      <point x="276" y="9" type="curve" smooth="yes"/>
      <point x="127" y="9"/>
      <point x="30" y="111"/>
      <point x="30" y="254" type="curve" smooth="yes"/>
      <point x="30" y="400"/>
      <point x="119" y="510"/>
      <point x="269" y="510" type="curve" smooth="yes"/>
      <point x="327" y="510"/>
      <point x="375" y="482"/>
      <point x="412" y="449" type="curve"/>
      <point x="412" y="500" type="line"/>
    </contour>
    <contour>
      <point x="410" y="336" type="line"/>
      <point x="410" y="352"/>
      <point x="377" y="427"/>
      <point x="278" y="427" type="curve" smooth="yes"/>
      <point x="114" y="427"/>
      <point x="115" y="95"/>
      <point x="278" y="95" type="curve" smooth="yes"/>
      <point x="377" y="95"/>
      <point x="410" y="182"/>
      <point x="410" y="198" type="curve"/>
    </contour>
  </outline>
</glyph>
<glyph name="h" format="2">
  <advance width="719"/>
  <unicode hex="0068"/>
  <guideline y="700"/>
  <guideline y="0"/>
  <guideline y="500"/>
  <outline>
    <contour>
      <point x="30" y="700" type="line"/>
      <point x="30" y="625" type="line"/>
      <point x="125" y="625" type="line"/>
      <point x="125" y="75" type="line"/>
      <point x="30" y="75" type="line"/>
      <point x="30" y="0" type="line"/>
      <point x="332" y="0" type="line"/>
      <point x="332" y="75" type="line"/>
      <point x="250" y="75" type="line"/>
      <point x="250" y="303" type="line"/>
      <point x="255" y="320"/>
      <point x="343" y="412"/>
      <point x="387" y="412" type="curve" smooth="yes"/>
      <point x="447" y="412"/>
      <point x="465" y="360"/>
      <point x="465" y="321" type="curve"/>
      <point x="465" y="75" type="line"/>
      <point x="385" y="75" type="line"/>
      <point x="385" y="0" type="line"/>
      <point x="689" y="0" type="line"/>
      <point x="689" y="75" type="line"/>
      <point x="600" y="75" type="line"/>
      <point x="600" y="374" type="line"/>
      <point x="600" y="398"/>
      <point x="567" y="510"/>
      <point x="430" y="510" type="curve" smooth="yes"/>
      <point x="331" y="510"/>
      <point x="264" y="432"/>
      <point x="250" y="414" type="curve"/>
      <point x="250" y="700" type="line"/>
    </contour>
  </outline>
</glyph>
<glyph name="i" format="2">
  <advance width="342"/>
  <unicode hex="0069"/>
  <guideline y="0"/>
  <guideline y="500"/>
  <guideline y="723"/>
  <outline>
    <contour>
      <point x="112" y="417" type="line"/>
      <point x="112" y="84" type="line"/>
    </contour>
    <contour>
      <point x="110" y="722" type="line"/>
      <point x="110" y="597" type="line"/>
      <point x="235" y="597" type="line"/>
      <point x="235" y="722" type="line"/>
    </contour>
    <contour>
      <point x="32" y="500" type="line"/>
      <point x="32" y="425" type="line"/>
      <point x="112" y="425" type="line"/>
      <point x="112" y="75" type="line"/>
      <point x="30" y="75" type="line"/>
      <point x="30" y="0" type="line"/>
      <point x="312" y="0" type="line"/>
      <point x="312" y="75" type="line"/>
      <point x="236" y="75" type="line"/>
      <point x="237" y="500" type="line"/>
    </contour>
  </outline>
</glyph>
<glyph name="j" format="2">
  <advance width="281"/>
  <unicode hex="006A"/>
  <guideline y="0"/>
  <guideline y="500"/>
  <outline>
    <contour>
      <point x="118.458" y="699.034" type="line"/>
      <point x="118.458" y="573.679" type="line"/>
      <point x="242.096" y="573.679" type="line"/>
      <point x="242.096" y="699.034" type="line"/>
    </contour>
    <contour>
      <point x="51.4868" y="499.839" type="line"/>
      <point x="51.4868" y="426" type="line"/>
      <point x="125.326" y="426" type="line"/>
      <point x="125.326" y="-22.1896" type="line"/>
      <point x="125.326" y="-30.7756"/>
      <point x="127.044" y="-61.6852"/>
      <point x="99.5684" y="-61.6852" type="curve" smooth="yes"/>
      <point x="80.6792" y="-61.6852"/>
      <point x="60.0728" y="-44.5132"/>
      <point x="60.0728" y="-44.5132" type="curve"/>
      <point x="30.8804" y="-120.07" type="line"/>
      <point x="34.3148" y="-125.222"/>
      <point x="68.6588" y="-166.434"/>
      <point x="140.781" y="-166.434" type="curve" smooth="yes"/>
      <point x="226.641" y="-166.434"/>
      <point x="250.682" y="-111.484"/>
      <point x="250.682" y="-78.8572" type="curve" smooth="yes"/>
      <point x="250.682" y="-46.2304"/>
      <point x="250.682" y="309.23"/>
      <point x="250.682" y="499.839" type="curve"/>
    </contour>
  </outline>
</glyph>
<glyph name="k" format="2">
  <advance width="727"/>
  <unicode hex="006B"/>
  <outline>
    <contour>
      <point x="30" y="700" type="line"/>
      <point x="30" y="625" type="line"/>
      <point x="114" y="625" type="line"/>
      <point x="114" y="75" type="line"/>
      <point x="30" y="75" type="line"/>
      <point x="30" y="0" type="line"/>
      <point x="330" y="0" type="line"/>
      <point x="330" y="75" type="line"/>
      <point x="239" y="75" type="line"/>
      <point x="239" y="211" type="line"/>
      <point x="359" y="279" type="line"/>
      <point x="439" y="75" type="line"/>
      <point x="370" y="75" type="line"/>
      <point x="370" y="0" type="line"/>
      <point x="692" y="0" type="line"/>
      <point x="692" y="75" type="line"/>
      <point x="573" y="75" type="line"/>
      <point x="466" y="335" type="line"/>
      <point x="598" y="425" type="line"/>
      <point x="697" y="425" type="line"/>
      <point x="697" y="500" type="line"/>
      <point x="310" y="500" type="line"/>
      <point x="310" y="425" type="line"/>
      <point x="445" y="425" type="line"/>
      <point x="239" y="312" type="line"/>
      <point x="239" y="700" type="line"/>
    </contour>
  </outline>
  <guideline angle="0" x="0" y="500"/>
  <guideline angle="0" x="0" y="0"/>
  <guideline angle="0" x="0" y="700"/>
</glyph>
<glyph name="l" format="2">
  <advance width="345"/>
  <unicode hex="006C"/>
  <guideline y="500"/>
  <guideline y="0"/>
  <guideline y="700"/>
  <outline>
    <contour>
      <point x="30" y="700" type="line"/>
      <point x="30" y="625" type="line"/>
      <point x="130" y="625" type="line"/>
      <point x="129" y="75" type="line"/>
      <point x="40" y="75" type="line"/>
      <point x="40" y="0" type="line"/>
      <point x="315" y="0" type="line"/>
      <point x="315" y="75" type="line"/>
      <point x="253" y="75" type="line"/>
      <point x="255" y="700" type="line"/>
    </contour>
  </outline>
</glyph>
<glyph name="m" format="2">
  <advance width="1074"/>
  <unicode hex="006D"/>
  <guideline y="501"/>
  <guideline y="0"/>
  <outline>
    <contour>
      <point x="125" y="75" type="line"/>
      <point x="30" y="75" type="line"/>
      <point x="30" y="0" type="line"/>
      <point x="332" y="0" type="line"/>
      <point x="332" y="75" type="line"/>
      <point x="250" y="75" type="line"/>
      <point x="250" y="303" type="line"/>
      <point x="268" y="364"/>
      <point x="328" y="412"/>
      <point x="387" y="412" type="curve" smooth="yes"/>
      <point x="433" y="412"/>
      <point x="465" y="374"/>
      <point x="465" y="320" type="curve" smooth="yes"/>
      <point x="465" y="75" type="line"/>
      <point x="385" y="75" type="line"/>
      <point x="385" y="0" type="line"/>
      <point x="689" y="0" type="line"/>
      <point x="689" y="75" type="line"/>
      <point x="600" y="75" type="line"/>
      <point x="600" y="303" type="line"/>
      <point x="618" y="364"/>
      <point x="680" y="412"/>
      <point x="742" y="412" type="curve" smooth="yes"/>
      <point x="788" y="412"/>
      <point x="820" y="374"/>
      <point x="820" y="320" type="curve" smooth="yes"/>
      <point x="820" y="75" type="line"/>
      <point x="740" y="75" type="line"/>
      <point x="740" y="0" type="line"/>
      <point x="1044" y="0" type="line"/>
      <point x="1044" y="75" type="line"/>
      <point x="955" y="75" type="line"/>
      <point x="955" y="300" type="line" smooth="yes"/>
      <point x="955" y="446"/>
      <point x="903" y="510"/>
      <point x="785" y="510" type="curve" smooth="yes"/>
      <point x="703" y="510"/>
      <point x="622" y="460"/>
      <point x="574" y="381" type="curve"/>
      <point x="602" y="375" type="line"/>
      <point x="580" y="469"/>
      <point x="528" y="510"/>
      <point x="430" y="510" type="curve" smooth="yes"/>
      <point x="365" y="510"/>
      <point x="296" y="473"/>
      <point x="250" y="414" type="curve"/>
      <point x="250" y="500" type="line"/>
      <point x="30" y="500" type="line"/>
      <point x="30" y="425" type="line"/>
      <point x="125" y="425" type="line"/>
    </contour>
  </outline>
</glyph>
<glyph name="n" format="2">
  <advance width="719"/>
  <unicode hex="006E"/>
  <guideline y="500"/>
  <guideline y="0"/>
  <outline>
    <contour>
      <point x="125" y="75" type="line"/>
      <point x="30" y="75" type="line"/>
      <point x="30" y="0" type="line"/>
      <point x="332" y="0" type="line"/>
      <point x="332" y="75" type="line"/>
      <point x="250" y="75" type="line"/>
      <point x="250" y="303" type="line"/>
      <point x="255" y="320"/>
      <point x="320" y="412"/>
      <point x="387" y="412" type="curve" smooth="yes"/>
      <point x="447" y="412"/>
      <point x="465" y="360"/>
      <point x="465" y="321" type="curve" smooth="yes"/>
      <point x="465" y="75" type="line"/>
      <point x="385" y="75" type="line"/>
      <point x="385" y="0" type="line"/>
      <point x="689" y="0" type="line"/>
      <point x="689" y="75" type="line"/>
      <point x="600" y="75" type="line"/>
      <point x="600" y="374" type="line" smooth="yes"/>
      <point x="600" y="398"/>
      <point x="567" y="510"/>
      <point x="430" y="510" type="curve" smooth="yes"/>
      <point x="331" y="510"/>
      <point x="264" y="432"/>
      <point x="250" y="414" type="curve"/>
    </contour>
    <contour>
      <point x="30" y="500" type="line"/>
      <point x="30" y="425" type="line"/>
      <point x="125" y="425" type="line"/>
      <point x="125" y="75" type="line"/>
      <point x="30" y="73" type="line"/>
      <point x="30" y="0" type="line"/>
      <point x="332" y="0" type="line"/>
      <point x="332" y="75" type="line"/>
      <point x="250" y="75" type="line"/>
      <point x="250" y="303" type="line"/>
      <point x="255" y="320"/>
      <point x="320" y="412"/>
      <point x="387" y="412" type="curve" smooth="yes"/>
      <point x="447" y="412"/>
      <point x="465" y="360"/>
      <point x="465" y="321" type="curve" smooth="yes"/>
      <point x="465" y="75" type="line"/>
      <point x="385" y="75" type="line"/>
      <point x="385" y="0" type="line"/>
      <point x="689" y="0" type="line"/>
      <point x="689" y="75" type="line"/>
      <point x="600" y="75" type="line"/>
      <point x="600" y="374" type="line" smooth="yes"/>
      <point x="600" y="398"/>
      <point x="567" y="510"/>
      <point x="430" y="510" type="curve" smooth="yes"/>
      <point x="331" y="510"/>
      <point x="264" y="432"/>
      <point x="250" y="414" type="curve"/>
      <point x="250" y="500" type="line"/>
    </contour>
  </outline>
</glyph>
<glyph name="o" format="2">
  <advance width="547"/>
  <unicode hex="006F"/>
  <guideline y="-1"/>
  <guideline y="490"/>
  <guideline y="91"/>
  <guideline x="421"/>
  <outline>
    <contour>
      <point x="278" y="509" type="curve" smooth="yes"/>
      <point x="135" y="509"/>
      <point x="20" y="409"/>
      <point x="20" y="250" type="curve" smooth="yes"/>
      <point x="20" y="91"/>
      <point x="135" y="-9"/>
      <point x="276" y="-9" type="curve" smooth="yes"/>
      <point x="421" y="-9"/>
      <point x="527" y="91"/>
      <point x="527" y="250" type="curve" smooth="yes"/>
      <point x="527" y="409"/>
      <point x="421" y="509"/>
    </contour>
    <contour>
      <point x="278" y="417" type="curve" smooth="yes"/>
      <point x="349" y="417"/>
      <point x="394" y="367"/>
      <point x="394" y="250" type="curve" smooth="yes"/>
      <point x="394" y="133"/>
      <point x="349" y="83"/>
      <point x="278" y="83" type="curve" smooth="yes"/>
      <point x="207" y="83"/>
      <point x="156" y="133"/>
      <point x="156" y="250" type="curve" smooth="yes"/>
      <point x="156" y="367"/>
      <point x="207" y="417"/>
    </contour>
  </outline>
</glyph>
<glyph name="p" format="2">
  <advance width="644"/>
  <unicode hex="0070"/>
  <guideline y="500"/>
  <guideline y="0"/>
  <guideline y="-200"/>
  <outline>
    <contour>
      <point x="248" y="500" type="line"/>
      <point x="248" y="450" type="line"/>
      <point x="267" y="470"/>
      <point x="302" y="510"/>
      <point x="408" y="510" type="curve" smooth="yes"/>
      <point x="520" y="510"/>
      <point x="624" y="410"/>
      <point x="624" y="268" type="curve" smooth="yes"/>
      <point x="624" y="85"/>
      <point x="520" y="10"/>
      <point x="408" y="10" type="curve" smooth="yes"/>
      <point x="302" y="10"/>
      <point x="260" y="43"/>
      <point x="248" y="67" type="curve"/>
      <point x="248" y="-125" type="line"/>
      <point x="345" y="-125" type="line"/>
      <point x="345" y="-200" type="line"/>
      <point x="30" y="-200" type="line"/>
      <point x="30" y="-125" type="line"/>
      <point x="123" y="-125" type="line"/>
      <point x="123" y="423" type="line"/>
      <point x="30" y="423" type="line"/>
      <point x="30" y="500" type="line"/>
    </contour>
    <contour>
      <point x="248" y="320" type="curve" smooth="yes"/>
      <point x="248" y="183" type="line"/>
      <point x="247" y="151"/>
      <point x="267" y="83"/>
      <point x="370" y="83" type="curve" smooth="yes"/>
      <point x="462" y="83"/>
      <point x="499" y="142"/>
      <point x="499" y="248" type="curve" smooth="yes"/>
      <point x="499" y="364"/>
      <point x="462" y="417"/>
      <point x="370" y="417" type="curve" smooth="yes"/>
      <point x="293" y="417"/>
      <point x="248" y="349"/>
    </contour>
  </outline>
</glyph>
<glyph name="q" format="2">
  <advance width="644"/>
  <unicode hex="0071"/>
  <guideline y="500"/>
  <guideline y="0"/>
  <guideline y="-200"/>
  <guideline x="236"/>
  <outline>
    <contour>
      <point x="396" y="500" type="line"/>
      <point x="396" y="450" type="line"/>
      <point x="377" y="470"/>
      <point x="342" y="510"/>
      <point x="236" y="510" type="curve" smooth="yes"/>
      <point x="124" y="510"/>
      <point x="20" y="410"/>
      <point x="20" y="268" type="curve" smooth="yes"/>
      <point x="20" y="85"/>
      <point x="124" y="10"/>
      <point x="236" y="10" type="curve" smooth="yes"/>
      <point x="342" y="10"/>
      <point x="384" y="43"/>
      <point x="396" y="67" type="curve"/>
      <point x="396" y="-125" type="line"/>
      <point x="299" y="-125" type="line"/>
      <point x="299" y="-200" type="line"/>
      <point x="614" y="-200" type="line"/>
      <point x="614" y="-125" type="line"/>
      <point x="521" y="-125" type="line"/>
      <point x="521" y="423" type="line"/>
      <point x="614" y="423" type="line"/>
      <point x="614" y="500" type="line"/>
    </contour>
    <contour>
      <point x="396" y="320" type="curve"/>
      <point x="396" y="183" type="line"/>
      <point x="397" y="151"/>
      <point x="377" y="83"/>
      <point x="274" y="83" type="curve" smooth="yes"/>
      <point x="182" y="83"/>
      <point x="145" y="142"/>
      <point x="145" y="248" type="curve" smooth="yes"/>
      <point x="145" y="364"/>
      <point x="182" y="417"/>
      <point x="274" y="417" type="curve" smooth="yes"/>
      <point x="351" y="417"/>
      <point x="396" y="349"/>
    </contour>
  </outline>
</glyph>
<glyph name="r" format="2">
  <advance width="567"/>
  <unicode hex="0072"/>
  <guideline y="500"/>
  <guideline y="0"/>
  <outline>
    <contour>
      <point x="369" y="413" type="curve" smooth="yes"/>
      <point x="285" y="419"/>
      <point x="244" y="364"/>
      <point x="244" y="286" type="curve"/>
      <point x="244" y="75" type="line"/>
      <point x="343" y="75" type="line"/>
      <point x="343" y="0" type="line"/>
      <point x="30" y="0" type="line"/>
      <point x="30" y="75" type="line"/>
      <point x="119" y="75" type="line"/>
      <point x="119" y="425" type="line"/>
      <point x="30" y="425" type="line"/>
      <point x="30" y="500" type="line"/>
      <point x="244" y="500" type="line"/>
      <point x="244" y="433" type="line"/>
      <point x="262" y="460"/>
      <point x="314" y="506"/>
      <point x="379" y="506" type="curve" smooth="yes"/>
      <point x="517" y="506"/>
      <point x="546" y="403"/>
      <point x="547" y="311" type="curve"/>
      <point x="429" y="311" type="line"/>
      <point x="432" y="330"/>
      <point x="429" y="409"/>
    </contour>
  </outline>
</glyph>
<glyph name="s" format="2">
  <advance width="554"/>
  <unicode hex="0073"/>
  <outline>
    <contour>
      <point x="392" y="500" type="line"/>
      <point x="467" y="500" type="line"/>
      <point x="467" y="316" type="line"/>
      <point x="400" y="316" type="line"/>
      <point x="391" y="341"/>
      <point x="377" y="417"/>
      <point x="267" y="421" type="curve" smooth="yes"/>
      <point x="138" y="425"/>
      <point x="151" y="314"/>
      <point x="262" y="303" type="curve" smooth="yes"/>
      <point x="471" y="283"/>
      <point x="512" y="222"/>
      <point x="522" y="153" type="curve" smooth="yes"/>
      <point x="531" y="90"/>
      <point x="501" y="37"/>
      <point x="420" y="10" type="curve" smooth="yes"/>
      <point x="241" y="-50"/>
      <point x="133" y="37"/>
      <point x="113" y="56" type="curve"/>
      <point x="113" y="0" type="line"/>
      <point x="38" y="0" type="line"/>
      <point x="38" y="192" type="line"/>
      <point x="108" y="192" type="line"/>
      <point x="117" y="164"/>
      <point x="197" y="63"/>
      <point x="339" y="81" type="curve" smooth="yes"/>
      <point x="414" y="90"/>
      <point x="401" y="157"/>
      <point x="371" y="174" type="curve" smooth="yes"/>
      <point x="325" y="200"/>
      <point x="236" y="189"/>
      <point x="164" y="207" type="curve" smooth="yes"/>
      <point x="100" y="223"/>
      <point x="30" y="271"/>
      <point x="30" y="355" type="curve" smooth="yes"/>
      <point x="30" y="530"/>
      <point x="289" y="543"/>
      <point x="392" y="452" type="curve"/>
    </contour>
  </outline>
  <guideline angle="0" x="0" y="500"/>
  <guideline angle="0" x="0" y="0"/>
</glyph>
<glyph name="t" format="2">
  <advance width="429"/>
  <unicode hex="0074"/>
  <outline>
    <contour>
      <point x="183" y="700" type="curve"/>
      <point x="242" y="700" type="line"/>
      <point x="242" y="516"/>
      <point x="242" y="142"/>
      <point x="242" y="142" type="curve" smooth="yes"/>
      <point x="242" y="118"/>
      <point x="244" y="83"/>
      <point x="275" y="83" type="curve" smooth="yes"/>
      <point x="305" y="83"/>
      <point x="313" y="102"/>
      <point x="313" y="142" type="curve"/>
      <point x="313" y="182" type="line"/>
      <point x="399" y="182" type="line"/>
      <point x="399" y="117" type="line"/>
      <point x="399" y="82"/>
      <point x="395" y="-5"/>
      <point x="264" y="-5" type="curve" smooth="yes"/>
      <point x="133" y="-5"/>
      <point x="117" y="79"/>
      <point x="117" y="148" type="curve"/>
      <point x="117" y="590" type="line"/>
      <point x="116" y="592"/>
      <point x="175" y="602"/>
    </contour>
    <contour>
      <point x="30" y="484" type="line"/>
      <point x="332" y="484" type="line"/>
      <point x="332" y="409" type="line"/>
      <point x="30" y="409" type="line"/>
    </contour>
  </outline>
  <guideline angle="0" x="0" y="700"/>
  <guideline angle="90" x="332" y="0"/>
  <guideline angle="90" x="242" y="0"/>
</glyph>
<glyph name="u" format="2">
  <advance width="736"/>
  <unicode hex="0075"/>
  <guideline y="700"/>
  <guideline y="0"/>
  <guideline y="500"/>
  <outline>
    <contour>
      <point x="30" y="500" type="line"/>
      <point x="30" y="425" type="line"/>
      <point x="121" y="425" type="line"/>
      <point x="121" y="166" type="line"/>
      <point x="121" y="106"/>
      <point x="173" y="0"/>
      <point x="315" y="0" type="curve" smooth="yes"/>
      <point x="463" y="0"/>
      <point x="490" y="87"/>
      <point x="490" y="87" type="curve"/>
      <point x="490" y="0" type="line"/>
      <point x="706" y="0" type="line"/>
      <point x="706" y="75" type="line"/>
      <point x="605" y="75" type="line"/>
      <point x="605" y="500" type="line"/>
      <point x="389" y="500" type="line"/>
      <point x="389" y="425" type="line"/>
      <point x="480" y="425" type="line"/>
      <point x="480" y="231" type="line"/>
      <point x="484" y="145"/>
      <point x="423" y="82"/>
      <point x="345" y="81" type="curve" smooth="yes"/>
      <point x="270" y="80"/>
      <point x="245" y="122"/>
      <point x="246" y="199" type="curve"/>
      <point x="246" y="500" type="line"/>
    </contour>
  </outline>
</glyph>
<glyph name="v" format="2">
  <advance width="697"/>
  <unicode hex="0076"/>
  <guideline y="500"/>
  <guideline y="0"/>
  <outline>
    <contour>
      <point x="412" y="0" type="line"/>
      <point x="582" y="425" type="line"/>
      <point x="677" y="425" type="line"/>
      <point x="677" y="500" type="line"/>
      <point x="375" y="500" type="line"/>
      <point x="375" y="425" type="line"/>
      <point x="478" y="425" type="line"/>
      <point x="361" y="116" type="line"/>
      <point x="229" y="425" type="line"/>
      <point x="322" y="425" type="line"/>
      <point x="322" y="500" type="line"/>
      <point x="20" y="500" type="line"/>
      <point x="20" y="425" type="line"/>
      <point x="104" y="425" type="line"/>
      <point x="283" y="0" type="line"/>
    </contour>
  </outline>
</glyph>
<glyph name="w" format="2">
  <advance width="1071"/>
  <unicode hex="0077"/>
  <outline>
    <contour>
      <point x="399" y="0" type="line"/>
      <point x="569" y="425" type="line"/>
      <point x="677" y="425" type="line"/>
      <point x="677" y="500" type="line"/>
      <point x="375" y="500" type="line"/>
      <point x="375" y="425" type="line"/>
      <point x="478" y="425" type="line"/>
      <point x="366" y="128" type="line"/>
      <point x="229" y="425" type="line"/>
      <point x="322" y="425" type="line"/>
      <point x="322" y="500" type="line"/>
      <point x="20" y="500" type="line"/>
      <point x="20" y="425" type="line"/>
      <point x="104" y="425" type="line"/>
      <point x="283" y="0" type="line"/>
    </contour>
    <contour>
      <point x="773" y="0" type="line"/>
      <point x="956" y="425" type="line"/>
      <point x="1051" y="425" type="line"/>
      <point x="1051" y="500" type="line"/>
      <point x="749" y="500" type="line"/>
      <point x="749" y="425" type="line"/>
      <point x="852" y="425" type="line"/>
      <point x="740" y="128" type="line"/>
      <point x="603" y="425" type="line"/>
      <point x="696" y="425" type="line"/>
      <point x="696" y="500" type="line"/>
      <point x="394" y="500" type="line"/>
      <point x="394" y="425" type="line"/>
      <point x="478" y="425" type="line"/>
      <point x="657" y="0" type="line"/>
    </contour>
  </outline>
</glyph>
<glyph name="x" format="2">
  <advance width="721"/>
  <unicode hex="0078"/>
  <outline>
    <contour>
      <point x="20" y="500" type="line"/>
      <point x="359" y="500" type="line"/>
      <point x="359" y="425" type="line"/>
      <point x="274" y="425" type="line"/>
      <point x="614" y="75" type="line"/>
      <point x="701" y="75" type="line"/>
      <point x="701" y="0" type="line"/>
      <point x="355" y="0" type="line"/>
      <point x="355" y="75" type="line"/>
      <point x="451" y="75" type="line"/>
      <point x="111" y="425" type="line"/>
      <point x="20" y="425" type="line"/>
    </contour>
    <contour>
      <point x="412" y="500" type="line"/>
      <point x="701" y="500" type="line"/>
      <point x="701" y="425" type="line"/>
      <point x="616" y="425" type="line"/>
      <point x="214" y="75" type="line"/>
      <point x="302" y="75" type="line"/>
      <point x="302" y="0" type="line"/>
      <point x="20" y="0" type="line"/>
      <point x="20" y="75" type="line"/>
      <point x="100" y="75" type="line"/>
      <point x="502" y="425" type="line"/>
      <point x="412" y="425" type="line"/>
    </contour>
  </outline>
  <guideline angle="0" x="0" y="500"/>
  <guideline angle="0" x="0" y="0"/>
  <guideline angle="90" x="20" y="0"/>
  <guideline angle="90" x="701" y="0"/>
</glyph>
<glyph name="y" format="2">
  <advance width="697"/>
  <unicode hex="0079"/>
  <guideline y="500"/>
  <guideline y="-200"/>
  <guideline y="0"/>
  <outline>
    <contour>
      <point x="20" y="500" type="line"/>
      <point x="20" y="425" type="line"/>
      <point x="104" y="425" type="line"/>
      <point x="296" y="-31" type="line"/>
      <point x="296" y="-31"/>
      <point x="276" y="-113"/>
      <point x="194" y="-113" type="curve" smooth="yes"/>
      <point x="112" y="-113"/>
      <point x="117" y="-40"/>
      <point x="117" y="0" type="curve"/>
      <point x="25" y="0" type="line"/>
      <point x="25" y="-54" type="line"/>
      <point x="25" y="-126"/>
      <point x="91" y="-206"/>
      <point x="194" y="-206" type="curve" smooth="yes"/>
      <point x="297" y="-206"/>
      <point x="346" y="-147"/>
      <point x="380" y="-79" type="curve"/>
      <point x="582" y="425" type="line"/>
      <point x="677" y="425" type="line"/>
      <point x="677" y="500" type="line"/>
      <point x="375" y="500" type="line"/>
      <point x="375" y="425" type="line"/>
      <point x="478" y="425" type="line"/>
      <point x="366" y="128" type="line"/>
      <point x="229" y="425" type="line"/>
      <point x="322" y="425" type="line"/>
      <point x="322" y="500" type="line"/>
    </contour>
  </outline>
</glyph>
<glyph name="z" format="2">
  <advance width="553"/>
  <unicode hex="007A"/>
  <outline>
    <contour>
      <point x="30" y="500" type="line"/>
      <point x="30" y="303" type="line"/>
      <point x="105" y="303" type="line"/>
      <point x="105" y="412" type="line"/>
      <point x="340" y="412" type="line"/>
      <point x="30" y="87" type="line"/>
      <point x="30" y="-1" type="line"/>
      <point x="523" y="0" type="line"/>
      <point x="523" y="196" type="line"/>
      <point x="448" y="196" type="line"/>
      <point x="448" y="87" type="line"/>
      <point x="205" y="86" type="line"/>
      <point x="523" y="418" type="line"/>
      <point x="523" y="500" type="line"/>
    </contour>
  </outline>
  <guideline angle="0" x="0" y="500"/>
  <guideline angle="0" x="0" y="0"/>
</glyph>
